<svg width="86" height="80" viewBox="0 0 86 80" fill="none" xmlns="http://www.w3.org/2000/svg">
<path d="M10.3251 2.35687L21.0181 6.21458C21.1758 6.26873 21.3191 6.2958 21.4768 6.2958C21.9928 6.2958 22.4802 5.99801 22.6809 5.51072C22.9389 4.88807 22.6092 4.18424 21.9355 3.94055L11.2424 0.082842C10.5831 -0.160804 9.83775 0.150522 9.57969 0.786709C9.32167 1.40936 9.66569 2.11318 10.3251 2.35687Z" fill="url(#paint0_linear_338_382)"/>
<path d="M10.7838 22.1328C10.9415 22.1328 11.0991 22.1057 11.2425 22.0516L21.9355 18.1939C22.5949 17.9502 22.939 17.2463 22.6809 16.6237C22.4228 16.0011 21.6775 15.6762 21.0181 15.9198L10.3251 19.7776C9.66571 20.0212 9.32164 20.7251 9.5797 21.3477C9.78038 21.835 10.2677 22.1328 10.7838 22.1328Z" fill="url(#paint1_linear_338_382)"/>
<path d="M64.5077 6.30895C64.6654 6.30895 64.8231 6.28188 64.9664 6.22773L75.6595 2.37002C76.3188 2.12637 76.6629 1.42246 76.4048 0.799856C76.1468 0.177248 75.4014 -0.1477 74.7421 0.0959891L64.049 3.9537C63.3897 4.19735 63.0456 4.90126 63.3037 5.52387C63.5043 6.01116 63.9917 6.30895 64.5077 6.30895Z" fill="url(#paint2_linear_338_382)"/>
<path d="M64.049 18.1938L74.7421 22.0515C74.8997 22.1056 75.0431 22.1327 75.2008 22.1327C75.7168 22.1327 76.2042 21.8349 76.4048 21.3476C76.6628 20.725 76.3332 20.0212 75.6594 19.7775L64.9664 15.9198C64.2927 15.6761 63.5617 15.9874 63.3036 16.6236C63.0456 17.2463 63.3896 17.9501 64.049 18.1938Z" fill="url(#paint3_linear_338_382)"/>
<path d="M36.9859 67.532C36.9286 66.7876 36.5702 66.0973 35.9682 65.6099C35.4235 65.1632 34.7354 64.9196 34.0187 64.9196C33.1587 64.9196 32.3417 65.2715 31.7826 65.8806L27.7404 70.2798C27.2244 70.8483 26.9664 71.5657 27.0237 72.3237C27.081 73.0682 27.4394 73.7585 28.0415 74.2459C28.5862 74.6925 29.2742 74.9362 29.9909 74.9362C30.8509 74.9362 31.668 74.5843 32.2413 73.9751L36.2835 69.5895C36.7852 69.0074 37.0433 68.29 36.9859 67.532Z" fill="url(#paint4_linear_338_382)"/>
<path d="M33.0007 58.6256C32.456 58.179 31.768 57.9353 31.0513 57.9353H30.8363C30.0479 57.9894 29.3169 58.3278 28.8008 58.8964L21.261 67.0721C20.1859 68.2362 20.315 70.0093 21.562 71.0381C22.1067 71.4847 22.7948 71.7284 23.4828 71.7284C23.5688 71.7284 23.6405 71.7284 23.7122 71.7149C24.5005 71.6607 25.2315 71.3223 25.7476 70.7538L33.2875 62.5781C34.3769 61.4276 34.2478 59.6544 33.0007 58.6256Z" fill="url(#paint5_linear_338_382)"/>
<path d="M37.9321 70.8758H37.7314C36.943 70.9299 36.2263 71.2683 35.6959 71.8369L34.3055 73.3394C33.2304 74.5035 33.3595 76.2902 34.6065 77.2919C35.1512 77.7385 35.8393 77.9822 36.556 77.9822H36.7566C37.545 77.928 38.276 77.5897 38.7921 77.0211L40.1682 75.5186C40.6842 74.9501 40.9422 74.2327 40.8849 73.4747C40.8276 72.7302 40.4692 72.0399 39.8672 71.5525C39.3511 71.1329 38.6488 70.8758 37.9321 70.8758Z" fill="url(#paint6_linear_338_382)"/>
<path d="M27.2966 58.9098C27.8126 58.3412 28.0706 57.6238 28.0133 56.8793C27.956 56.1348 27.5976 55.4446 26.9956 54.9572C26.4509 54.5105 25.7772 54.2668 25.0604 54.2668H24.8454C24.057 54.321 23.326 54.6594 22.8099 55.2279L16.4743 62.1042C15.3992 63.2683 15.5282 65.0414 16.7609 66.0702C17.3056 66.5168 17.9937 66.7605 18.7104 66.7605C18.7821 66.7605 18.8537 66.7605 18.9254 66.747C19.7138 66.6928 20.4448 66.3544 20.9609 65.7859L27.2966 58.9098Z" fill="url(#paint7_linear_338_382)"/>
<path d="M36.5137 24.5826L37.0297 31.0257H48.9557L49.4718 24.5826L50.9052 31.0257H56.3378V25.8144C56.3378 21.5912 53.7864 17.9365 50.0594 16.1361C49.7871 16.0008 49.4717 16.0414 49.2281 16.2173C47.4649 17.422 45.3148 18.1395 42.9927 18.1395C40.6562 18.1395 38.5061 17.4221 36.7573 16.2173C36.5136 16.0549 36.1983 16.0143 35.9259 16.1361C32.199 17.9364 29.6475 21.5911 29.6475 25.8144V31.0257H35.0802L36.5137 24.5826Z" fill="url(#paint8_linear_338_382)"/>
<path d="M50.188 8.04165C50.188 11.7944 46.9664 14.8367 42.9922 14.8367C39.018 14.8367 35.7964 11.7945 35.7964 8.04165C35.7964 4.28876 39.018 1.24658 42.9922 1.24658C46.9664 1.24658 50.188 4.28876 50.188 8.04165Z" fill="url(#paint9_linear_338_382)"/>
<path d="M65.7542 61.3059C63.69 59.6274 58.3004 55.2283 58.0997 55.0659C55.8062 53.1167 52.0363 49.5702 49.9865 47.6347L49.2841 46.9714L48.8398 47.8242C47.9367 49.5433 46.5606 51.8308 45.1129 52.9813C43.9375 53.9153 42.6617 54.4297 41.5007 54.4297C41.1567 54.4297 40.8413 54.3891 40.526 54.2943C39.6229 54.0372 38.4045 53.2656 37.7308 51.0727C36.6271 47.5128 38.5765 43.1813 41.0993 41.0566L41.8447 40.4204L40.9703 39.9602C39.9239 39.4052 38.8489 39.121 37.7881 39.121C36.0823 39.121 34.6203 39.8248 33.3158 40.5828L33.1152 40.7047C32.6708 40.9619 31.8537 41.2732 30.5207 41.2732C29.3023 41.2732 27.9405 41.0295 26.4211 40.5287L14.7391 57.5844C15.3125 58.1258 15.8858 58.6943 16.4306 59.3034L16.9753 59.9126L21.9348 54.5388C22.7232 53.6861 23.8557 53.1988 25.0453 53.1988C26.0344 53.1988 26.9948 53.5371 27.7401 54.1463C28.4569 54.7419 28.9299 55.5405 29.0732 56.461L29.2022 57.2054L29.9619 57.0159C30.2199 56.9483 30.4779 56.9077 30.7503 56.8941C30.8506 56.8941 30.951 56.8806 31.0513 56.8806C32.0547 56.8806 32.9864 57.2055 33.7461 57.8417C35.2942 59.1141 35.5952 61.3069 34.4342 62.9447L33.8465 63.7704L34.8785 63.9869C35.5952 64.1358 36.2116 64.4201 36.7133 64.8262C37.5447 65.503 38.0463 66.4505 38.118 67.4927C38.161 67.9935 38.0893 68.5079 37.9173 68.9817L37.645 69.7533L38.4907 69.8615C39.2791 69.9698 40.0101 70.2812 40.6121 70.782C41.8735 71.8242 42.3465 73.4621 41.8019 74.9781L41.6586 75.3978L46.2885 79.445C46.7185 79.8105 47.2919 80 47.8939 80H48.0516C48.711 79.9594 49.313 79.6751 49.7574 79.2014L50.0728 78.8494C50.6031 78.2809 50.8611 77.5635 50.8038 76.819C50.7465 76.0881 50.4024 75.4113 49.8148 74.9105L45.9016 71.6619C45.7869 71.5671 45.7152 71.4317 45.7009 71.2964C45.6866 71.1475 45.7439 71.0121 45.8442 70.9038C45.9589 70.782 46.1022 70.7143 46.2743 70.7143C46.3746 70.7143 46.5179 70.7414 46.6469 70.8497L51.9505 75.2353C52.4952 75.6956 53.1833 75.9257 53.9143 75.9257H54.1006C54.889 75.8715 55.62 75.5331 56.1361 74.9781L56.4658 74.6262C57.3689 73.6516 57.2685 72.1762 56.2221 71.3234L48.6537 65.0563C48.539 64.9615 48.4674 64.8262 48.453 64.6908C48.4387 64.5419 48.496 64.4065 48.5964 64.2983C48.711 64.1764 48.8544 64.1088 49.0264 64.1088C49.1267 64.1088 49.2701 64.1358 49.3991 64.2441L57.8849 71.2558C58.4296 71.716 59.1177 71.9461 59.863 71.9461H60.035C60.8234 71.8919 61.5544 71.5536 62.0705 70.9985C62.6008 70.43 62.8589 69.7126 62.8015 68.9681C62.7442 68.2236 62.3858 67.5333 61.7981 67.046L52.7962 59.6012C52.6816 59.5064 52.6099 59.3711 52.5956 59.2357C52.5812 59.0868 52.6386 58.9515 52.7389 58.8432C52.8536 58.7213 52.9969 58.6537 53.1689 58.6537C53.2693 58.6537 53.4126 58.6807 53.5416 58.789L61.9414 65.7464C62.4717 66.1796 63.1598 66.4097 63.8622 66.4097C64.7223 66.4097 65.5393 66.0578 66.0983 65.4486C67.1734 64.2845 67.0587 62.5113 65.8116 61.4826L65.7542 61.3059Z" fill="url(#paint10_linear_338_382)"/>
<path d="M23.5126 33.4085L18.2662 30.2005C16.4315 29.077 13.966 29.5779 12.7762 31.3104L0.635559 49.0427C-0.554199 50.7752 -0.0238124 53.1034 1.81091 54.2269L7.05726 57.4349C8.89203 58.5584 11.3575 58.0576 12.5473 56.325L24.6879 38.5928C25.8777 36.8602 25.3473 34.532 23.5126 33.4085Z" fill="url(#paint11_linear_338_382)"/>
<path d="M56.9821 40.7582C55.4484 40.7311 54.187 40.3115 53.0689 39.9325C51.9222 39.5535 50.8328 39.188 49.471 39.188C48.3673 39.188 47.1919 39.4316 45.8875 39.946L45.4432 40.122C44.6405 40.4333 43.8664 40.7311 43.0924 41.0559C40.541 42.2471 37.6311 46.8628 38.8352 50.7611C39.2652 52.1553 39.9389 52.9809 40.8563 53.2517C41.0569 53.3058 41.2719 53.3329 41.5013 53.3329C42.3757 53.3329 43.3934 52.9133 44.3538 52.1417C45.5149 51.2078 46.9483 49.1232 48.267 46.4025C48.4103 46.1047 48.7114 45.8881 49.0554 45.834C49.1127 45.8204 49.1701 45.8204 49.2417 45.8204C49.5284 45.8204 49.8008 45.9287 50.0014 46.1182C51.8076 47.8373 56.2941 52.074 58.9029 54.2939C59.4046 54.7677 65.382 59.7083 66.3137 60.3715L66.457 60.4663L66.5 60.4933L66.6577 60.6152C66.7437 60.6828 66.801 60.7641 66.8727 60.8317L67.5607 61.5491L68.7935 60.0466C69.4959 59.1803 70.2269 58.2599 71.087 57.3665L59.505 40.4598C58.7023 40.6493 57.8565 40.7582 56.9821 40.7582Z" fill="url(#paint12_linear_338_382)"/>
<path d="M85.3644 49.0556L73.2237 31.3234C72.034 29.5908 69.5828 29.09 67.7337 30.2135L62.4874 33.4214C60.6526 34.5449 60.1223 36.8596 61.312 38.6057L73.4527 56.338C74.6425 58.0706 77.0936 58.5714 78.9427 57.4479L84.1891 54.2399C86.0238 53.1029 86.5542 50.7882 85.3644 49.0556Z" fill="url(#paint13_linear_338_382)"/>
<defs>
<linearGradient id="paint0_linear_338_382" x1="16.1311" y1="0" x2="16.1311" y2="6.2958" gradientUnits="userSpaceOnUse">
<stop stop-color="#36B2F1"/>
<stop offset="1" stop-color="#1F678B"/>
</linearGradient>
<linearGradient id="paint1_linear_338_382" x1="16.1303" y1="15.8386" x2="16.1303" y2="22.1328" gradientUnits="userSpaceOnUse">
<stop stop-color="#36B2F1"/>
<stop offset="1" stop-color="#1F678B"/>
</linearGradient>
<linearGradient id="paint2_linear_338_382" x1="69.8542" y1="0.0147705" x2="69.8542" y2="6.30895" gradientUnits="userSpaceOnUse">
<stop stop-color="#36B2F1"/>
<stop offset="1" stop-color="#1F678B"/>
</linearGradient>
<linearGradient id="paint3_linear_338_382" x1="69.8551" y1="15.8369" x2="69.8551" y2="22.1327" gradientUnits="userSpaceOnUse">
<stop stop-color="#36B2F1"/>
<stop offset="1" stop-color="#1F678B"/>
</linearGradient>
<linearGradient id="paint4_linear_338_382" x1="32.0048" y1="64.9196" x2="32.0048" y2="74.9362" gradientUnits="userSpaceOnUse">
<stop stop-color="#36B2F1"/>
<stop offset="1" stop-color="#1F678B"/>
</linearGradient>
<linearGradient id="paint5_linear_338_382" x1="27.2802" y1="57.9353" x2="27.2802" y2="71.7284" gradientUnits="userSpaceOnUse">
<stop stop-color="#36B2F1"/>
<stop offset="1" stop-color="#1F678B"/>
</linearGradient>
<linearGradient id="paint6_linear_338_382" x1="37.2353" y1="70.8757" x2="37.2353" y2="77.9822" gradientUnits="userSpaceOnUse">
<stop stop-color="#36B2F1"/>
<stop offset="1" stop-color="#1F678B"/>
</linearGradient>
<linearGradient id="paint7_linear_338_382" x1="21.8832" y1="54.2668" x2="21.8832" y2="66.7605" gradientUnits="userSpaceOnUse">
<stop stop-color="#36B2F1"/>
<stop offset="1" stop-color="#1F678B"/>
</linearGradient>
<linearGradient id="paint8_linear_338_382" x1="42.9927" y1="16.0555" x2="42.9927" y2="31.0257" gradientUnits="userSpaceOnUse">
<stop stop-color="#36B2F1"/>
<stop offset="1" stop-color="#1F678B"/>
</linearGradient>
<linearGradient id="paint9_linear_338_382" x1="42.9922" y1="1.24658" x2="42.9922" y2="14.8367" gradientUnits="userSpaceOnUse">
<stop stop-color="#36B2F1"/>
<stop offset="1" stop-color="#1F678B"/>
</linearGradient>
<linearGradient id="paint10_linear_338_382" x1="40.7857" y1="39.121" x2="40.7857" y2="80" gradientUnits="userSpaceOnUse">
<stop stop-color="#36B2F1"/>
<stop offset="1" stop-color="#1F678B"/>
</linearGradient>
<linearGradient id="paint11_linear_338_382" x1="12.6618" y1="29.6003" x2="12.6618" y2="58.0351" gradientUnits="userSpaceOnUse">
<stop stop-color="#36B2F1"/>
<stop offset="1" stop-color="#1F678B"/>
</linearGradient>
<linearGradient id="paint12_linear_338_382" x1="54.8209" y1="39.188" x2="54.8209" y2="61.5491" gradientUnits="userSpaceOnUse">
<stop stop-color="#36B2F1"/>
<stop offset="1" stop-color="#1F678B"/>
</linearGradient>
<linearGradient id="paint13_linear_338_382" x1="73.3382" y1="29.6133" x2="73.3382" y2="58.048" gradientUnits="userSpaceOnUse">
<stop stop-color="#36B2F1"/>
<stop offset="1" stop-color="#1F678B"/>
</linearGradient>
</defs>
</svg>
