<svg width="87" height="81" viewBox="0 0 87 81" fill="none" xmlns="http://www.w3.org/2000/svg">
<path d="M48.1414 16.7599C48.1414 21.153 46.3937 25.3677 43.2826 28.4737C40.1715 31.5797 35.9497 33.3243 31.5529 33.3243C9.59286 32.5682 9.59684 0.956228 31.5529 0.203829V0.199951C35.9496 0.199951 40.1714 1.94477 43.2826 5.05055C46.3937 8.15633 48.1414 12.3706 48.1414 16.7599ZM52.6818 77.0492C49.629 74.8895 47.2325 71.9311 45.7527 68.4995C44.2729 65.0679 43.768 61.2992 44.2923 57.6006L46.0013 45.8134C46.2033 44.2004 46.883 42.6882 47.9589 41.4707C28.1346 28.9697 -0.0467371 43.4869 0.201837 68.1779C0.131926 72.3733 2.29921 76.2933 5.88802 78.4762C9.48071 80.6592 13.9628 80.7755 17.6645 78.7864C26.4344 74.5369 36.6724 74.5369 45.4431 78.7864C48.6163 80.4072 52.3372 80.5623 55.6346 79.2207C54.4539 78.3522 53.4285 77.6077 52.6828 77.0494L52.6818 77.0492ZM80.2735 71.993L69.5848 79.6858C68.7925 80.2751 67.705 80.2751 66.9126 79.6858C64.3026 77.7626 58.834 73.8851 56.2548 71.993C54.1419 70.4809 52.4873 68.4219 51.462 66.0373C50.4367 63.6567 50.0871 61.0393 50.4444 58.4687L52.1534 46.6189C52.2194 46.1187 52.4602 45.6573 52.837 45.3161C53.3147 44.8508 53.975 44.622 54.6391 44.6957C58.9737 45.3781 63.4014 44.2808 66.9127 41.6558C67.6895 41.0199 68.8081 41.0199 69.5849 41.6558C73.1815 44.2304 77.6364 45.3083 82.0136 44.6646C83.1982 44.5832 84.2353 45.444 84.3751 46.6189L86.0529 58.4687C86.8142 63.7031 84.5847 68.9219 80.2735 71.993ZM76.4516 54.9945C75.8729 54.4129 75.0845 54.0872 74.2611 54.0872C73.4377 54.0872 72.6492 54.4129 72.0705 54.9945L67.5341 59.4922L65.0483 57.0107C63.8249 55.8436 61.8906 55.8708 60.6944 57.0689C59.502 58.2708 59.4904 60.2018 60.6672 61.4154L65.328 66.0683C65.9106 66.6577 66.7068 66.9911 67.5341 66.9911C68.3615 66.9911 69.1576 66.6577 69.7403 66.0683L76.4518 59.3682C77.0344 58.7904 77.3606 58.0033 77.3606 57.1813C77.3606 56.3594 77.0342 55.5722 76.4516 54.9945Z" fill="url(#paint0_linear_338_267)"/>
<defs>
<linearGradient id="paint0_linear_338_267" x1="43.2002" y1="0.199951" x2="43.2002" y2="80.2" gradientUnits="userSpaceOnUse">
<stop stop-color="#36B2F1"/>
<stop offset="1" stop-color="#1F678B"/>
</linearGradient>
</defs>
</svg>
