<svg width="86" height="80" viewBox="0 0 86 80" fill="none" xmlns="http://www.w3.org/2000/svg">
<path d="M23.107 57.3901H23.1703C28.189 57.3901 32.727 54.0585 34.1061 49.1046C36.4721 40.5977 29.6483 32.8809 21.4958 34.0903C16.4855 34.8364 12.4917 39.0746 11.8886 44.2498C11.0704 51.3164 16.4052 57.3335 23.107 57.3901Z" fill="url(#paint0_linear_338_20)"/>
<path d="M23.2594 59.8544H23.1076C15.1704 59.8761 7.87477 63.7543 3.56372 70.2265C1.59843 73.1677 0.388027 76.5253 0 80H46.37C45.1427 68.6305 35.2327 59.89 23.2594 59.8544Z" fill="url(#paint1_linear_338_20)"/>
<path d="M57.2467 29.1373H57.4829C65.4411 29.0809 71.852 22.2399 71.5399 13.9808C71.2489 6.50645 65.2476 0.320269 57.9687 0.0126531C49.8924 -0.330044 43.2077 6.3331 43.2077 14.5705C43.2035 22.5654 49.495 29.0729 57.2467 29.1373Z" fill="url(#paint2_linear_338_20)"/>
<path d="M57.2463 31.6049C49.3007 31.6265 41.7771 34.8367 36.3993 40.4456C36.2138 40.6365 36.1632 40.9011 36.2475 41.1571C36.7114 42.5799 36.994 44.0895 36.994 45.6772C36.994 49.9284 35.1595 53.7415 32.2747 56.34C32.1145 56.4832 32.2115 56.7608 32.4266 56.7608H86C84.6082 42.5794 72.3316 31.653 57.4648 31.6097L57.2463 31.6049Z" fill="url(#paint3_linear_338_20)"/>
<path d="M18.6825 28.1611C18.9102 28.404 19.2097 28.5255 19.526 28.5255C19.8507 28.5255 20.1501 28.404 20.3779 28.1611L23.8319 24.5649C24.2958 24.0747 24.2874 23.2982 23.8192 22.821C23.3427 22.3308 22.5878 22.3438 22.1239 22.821L20.7195 24.2959V18.5872C20.7195 12.5357 25.4936 7.62504 31.3768 7.62504H36.5684C37.239 7.62504 37.7662 7.06978 37.7662 6.39303C37.7662 5.70329 37.239 5.16101 36.5684 5.16101H31.3768C24.1651 5.16101 18.3109 11.1822 18.3109 18.6006V24.2964L16.9065 22.8215C16.4425 22.3443 15.6876 22.3313 15.2111 22.8215C14.7345 23.2987 14.7345 24.0751 15.1984 24.5653L18.6825 28.1611Z" fill="url(#paint4_linear_338_20)"/>
<path d="M28.1843 21.2847V24.9155L27.4842 24.1824C27.0203 23.6922 26.2528 23.6922 25.7888 24.1694C25.3123 24.6466 25.3123 25.4231 25.7762 25.9133L28.5302 28.7763C28.7579 29.0192 29.0573 29.1407 29.3821 29.1407C29.6942 29.1407 29.9978 29.0192 30.2255 28.7763L32.9795 25.9133C33.4434 25.4231 33.4434 24.6466 32.9669 24.1694C32.503 23.6922 31.7354 23.6922 31.2715 24.1824L30.5714 24.9155V21.2847C30.5714 18.4737 32.8066 16.1745 35.5395 16.1745H38.1543C38.8249 16.1745 39.3521 15.6322 39.3521 14.9425C39.3521 14.2527 38.8249 13.7104 38.1543 13.7104H35.548C31.474 13.7235 28.1843 17.1115 28.1843 21.2847Z" fill="url(#paint5_linear_338_20)"/>
<defs>
<linearGradient id="paint0_linear_338_20" x1="23.1934" y1="33.9647" x2="23.1934" y2="57.3901" gradientUnits="userSpaceOnUse">
<stop stop-color="#36B2F1"/>
<stop offset="1" stop-color="#1F678B"/>
</linearGradient>
<linearGradient id="paint1_linear_338_20" x1="23.185" y1="59.854" x2="23.185" y2="80" gradientUnits="userSpaceOnUse">
<stop stop-color="#36B2F1"/>
<stop offset="1" stop-color="#1F678B"/>
</linearGradient>
<linearGradient id="paint2_linear_338_20" x1="57.3793" y1="0" x2="57.3793" y2="29.1373" gradientUnits="userSpaceOnUse">
<stop stop-color="#36B2F1"/>
<stop offset="1" stop-color="#1F678B"/>
</linearGradient>
<linearGradient id="paint3_linear_338_20" x1="59.0975" y1="31.6049" x2="59.0975" y2="56.7608" gradientUnits="userSpaceOnUse">
<stop stop-color="#36B2F1"/>
<stop offset="1" stop-color="#1F678B"/>
</linearGradient>
<linearGradient id="paint4_linear_338_20" x1="26.3091" y1="5.16101" x2="26.3091" y2="28.5255" gradientUnits="userSpaceOnUse">
<stop stop-color="#36B2F1"/>
<stop offset="1" stop-color="#1F678B"/>
</linearGradient>
<linearGradient id="paint5_linear_338_20" x1="32.391" y1="13.7104" x2="32.391" y2="29.1407" gradientUnits="userSpaceOnUse">
<stop stop-color="#36B2F1"/>
<stop offset="1" stop-color="#1F678B"/>
</linearGradient>
</defs>
</svg>
