<svg width="175" height="55" viewBox="0 0 175 55" fill="none" xmlns="http://www.w3.org/2000/svg">
<g clip-path="url(#clip0_309_195)">
<path d="M21.8719 19.5488V25.4009H35.9949C35.6199 28.6383 34.4951 31.1286 32.7453 32.7473C30.7456 34.7395 27.4961 36.9808 21.8719 36.9808C13.2481 36.9808 6.49907 30.008 6.49907 21.4165C6.49907 12.825 13.1231 5.85218 21.8719 5.85218C26.4962 5.85218 29.9957 7.71989 32.4954 10.0857L36.6198 5.97669C33.1203 2.6148 28.3709 0 21.8719 0C9.99857 0 0 9.58761 0 21.4165C0 33.2453 9.99857 42.833 21.8719 42.833C28.246 42.833 33.1203 40.7162 36.8697 36.8563C40.7442 32.9963 41.994 27.5177 41.994 23.1597C41.994 21.79 41.869 20.5449 41.744 19.5488H21.8719Z" fill="#4285F4"/>
<path d="M59.4915 14.6927C51.8676 14.6927 45.4935 20.5449 45.4935 28.5138C45.4935 36.4828 51.7426 42.3349 59.4915 42.3349C67.2404 42.3349 73.4895 36.6073 73.4895 28.6384C73.4895 20.5449 67.2404 14.6927 59.4915 14.6927ZM59.4915 36.9808C55.2421 36.9808 51.6176 33.4944 51.6176 28.6384C51.6176 23.6578 55.2421 20.2959 59.4915 20.2959C63.7409 20.2959 67.3654 23.6578 67.3654 28.6384C67.3654 33.4944 63.7409 36.9808 59.4915 36.9808Z" fill="#EA4335"/>
<path d="M127.857 17.8056H127.607C126.232 16.1869 123.607 14.6927 120.233 14.6927C113.234 14.6927 107.235 20.6694 107.235 28.5138C107.235 36.2337 113.234 42.3349 120.233 42.3349C123.607 42.3349 126.232 40.8408 127.607 39.2221H127.857V41.2143C127.857 46.4439 124.982 49.3077 120.483 49.3077C116.733 49.3077 114.484 46.6929 113.484 44.3272L108.235 46.5684C109.734 50.1793 113.859 54.7864 120.608 54.7864C127.732 54.7864 133.856 50.5529 133.856 40.3427V15.4398H128.107V17.8056H127.857ZM120.858 36.9808C116.608 36.9808 113.484 33.3699 113.484 28.6384C113.484 23.7823 116.733 20.2959 120.858 20.2959C124.982 20.2959 128.232 23.9068 128.232 28.7629C128.357 33.4944 125.107 36.9808 120.858 36.9808Z" fill="#4285F4"/>
<path d="M90.612 14.6927C82.9881 14.6927 76.614 20.5449 76.614 28.5138C76.614 36.4828 82.8632 42.3349 90.612 42.3349C98.3609 42.3349 104.61 36.6073 104.61 28.6384C104.61 20.5449 98.3609 14.6927 90.612 14.6927ZM90.612 36.9808C86.3627 36.9808 82.7382 33.4944 82.7382 28.6384C82.7382 23.6578 86.3627 20.2959 90.612 20.2959C94.8614 20.2959 98.4859 23.6578 98.4859 28.6384C98.4859 33.4944 94.8614 36.9808 90.612 36.9808Z" fill="#FBBC05"/>
<path d="M138.48 0.622559H144.479V42.4594H138.48V0.622559Z" fill="#34A853"/>
<path d="M162.977 36.9808C159.852 36.9808 157.727 35.6112 156.228 32.7473L174.85 25.152L174.225 23.5333C173.1 20.4204 169.476 14.6927 162.352 14.6927C155.228 14.6927 149.229 20.2959 149.229 28.5138C149.229 36.2337 155.103 42.3349 162.977 42.3349C169.351 42.3349 172.975 38.475 174.6 36.2337L169.851 33.1209C168.226 35.4867 166.101 36.9808 162.977 36.9808ZM162.602 19.9224C165.101 19.9224 167.226 21.1675 167.851 22.9107L155.353 28.1403C155.228 22.4126 159.477 19.9224 162.602 19.9224Z" fill="#EA4335"/>
</g>
<defs>
<clipPath id="clip0_309_195">
<rect width="174.85" height="54.7863" fill="white"/>
</clipPath>
</defs>
</svg>
