<svg width="175" height="43" viewBox="0 0 175 43" fill="none" xmlns="http://www.w3.org/2000/svg">
<g clip-path="url(#clip0_309_203)">
<path d="M68.8796 15.4236H74.4024V32.795H68.8796V15.4236Z" fill="#E60023"/>
<mask id="mask0_309_203" style="mask-type:luminance" maskUnits="userSpaceOnUse" x="0" y="0" width="175" height="43">
<path d="M0 -4.3422e-05H174.85V42.7897H0V-4.3422e-05Z" fill="white"/>
</mask>
<g mask="url(#mask0_309_203)">
<path d="M75.5555 15.4236H80.8749V17.7986H80.9764C82.2639 15.9325 83.9241 14.9148 86.3298 14.9148C90.1243 14.9148 92.3605 17.629 92.3605 21.4968V32.795H86.8379V22.6166C86.8379 20.7843 85.9231 19.5289 84.1275 19.5289C82.2979 19.5289 81.0781 21.0558 81.0781 23.1932V32.795H75.5555V15.4236Z" fill="#E60023"/>
<path d="M74.9536 10.776C74.9536 8.94378 73.4704 7.45863 71.6409 7.45863C69.8114 7.45863 68.3281 8.94378 68.3281 10.776C68.3281 12.6081 69.8114 14.0933 71.6409 14.0933C73.4704 14.0933 74.9536 12.6081 74.9536 10.776Z" fill="#E60023"/>
<path d="M131.202 15.1727C131.044 15.1585 130.864 15.1522 130.652 15.1522C128.551 15.1522 127.129 16.0683 125.909 18.1379H125.807V15.4237H120.522V32.7949H126.044V24.9914C126.044 21.3757 128.044 19.7002 131.202 19.9926V15.1727Z" fill="#E60023"/>
<path d="M158.303 21.836C156.101 21.429 154.136 21.2594 154.136 20.038C154.136 18.9522 155.186 18.4433 156.541 18.4433C158.066 18.4433 159.117 18.9183 159.32 20.4791H164.402C164.131 17.0523 161.488 14.9147 156.576 14.9147C152.476 14.9147 149.088 16.8147 149.088 20.4791C149.088 24.5503 152.306 25.3646 155.322 25.8737C157.626 26.2808 159.726 26.4505 159.726 28.0111C159.726 29.1308 158.676 29.7415 157.016 29.7415C155.35 29.7415 154.249 29.0358 153.911 27.6041H148.649C149.036 31.1751 152.166 33.3379 157.05 33.3379C161.59 33.3379 164.944 31.3701 164.944 27.5702C164.944 23.1254 161.353 22.345 158.303 21.836Z" fill="#E60023"/>
<path d="M139.769 18.8504C141.564 18.8504 142.852 20.1736 143.055 22.2434H136.211C136.584 20.1736 137.668 18.8504 139.769 18.8504ZM140.074 29.3342C137.804 29.3342 136.516 27.8754 136.177 25.5343H148.646C148.679 22.0059 147.663 18.9861 145.596 17.0863C144.105 15.7291 142.14 14.9148 139.667 14.9148C134.382 14.9148 130.756 18.8843 130.756 24.0755C130.756 29.3342 134.28 33.3041 140.006 33.3041C142.208 33.3041 143.97 32.7273 145.427 31.7094C146.951 30.6576 147.968 29.1648 148.341 27.6041H142.953C142.479 28.6898 141.531 29.3342 140.074 29.3342Z" fill="#E60023"/>
<path d="M174.67 28.6988C174.415 28.7089 174.071 28.7238 173.755 28.7238C172.569 28.7238 171.824 28.3844 171.824 27.0273V18.8844H174.67V15.4237H171.824V9.9273H166.437V15.4237H164.742V18.8844H166.437V28.2148C166.437 31.9471 168.741 32.9987 171.96 32.9987C173.188 32.9987 174.116 32.9066 174.67 32.7982V28.6988Z" fill="#E60023"/>
<path d="M102.223 28.7067C102.003 28.7152 101.748 28.7238 101.511 28.7238C100.325 28.7238 99.5794 28.3844 99.5794 27.0273V18.8844H102.223V15.4237H99.5794V9.9273H94.1924V15.4237H92.3961V18.8844H94.1924V28.2148C94.1924 31.9471 96.4962 32.9987 99.715 32.9987C100.804 32.9987 101.657 32.9261 102.223 32.8342V28.7067Z" fill="#E60023"/>
<path d="M114.252 22.2433C114.049 20.1737 112.761 18.8503 110.966 18.8503C108.865 18.8503 107.781 20.1737 107.408 22.2433H114.252ZM101.953 24.0754C101.953 18.8843 105.578 14.9148 110.864 14.9148C113.337 14.9148 115.302 15.729 116.793 17.0861C118.86 18.9862 119.876 22.0058 119.842 25.5344H107.374C107.713 27.8753 109 29.3343 111.271 29.3343C112.727 29.3343 113.676 28.6897 114.15 27.604H119.537C119.165 29.1646 118.148 30.6575 116.624 31.7094C115.167 32.7271 113.405 33.304 111.203 33.304C105.477 33.304 101.953 29.3343 101.953 24.0754Z" fill="#E60023"/>
<path d="M59.2887 19.9362C61.4572 19.9362 62.6769 18.6469 62.6769 16.7128C62.6769 14.779 61.4232 13.5915 59.2887 13.5915H55.0534V19.9362H59.2887ZM49.4623 8.53618H59.0525C62 8.53618 64.1685 9.35039 65.6592 10.7755C67.2178 12.2342 68.0988 14.3041 68.0988 16.7468C68.0988 21.395 64.88 24.6862 59.8994 24.6862H55.0534V32.795H49.4623V8.53618Z" fill="#E60023"/>
<path d="M41.8812 21.3949C41.8812 32.9265 32.5459 42.2749 21.0304 42.2749C9.51496 42.2749 0.179718 32.9265 0.179718 21.3949C0.179718 9.86306 9.51496 0.514883 21.0304 0.514883C32.5459 0.514883 41.8812 9.86306 41.8812 21.3949Z" fill="white"/>
<path d="M21.0302 0.514638C9.51475 0.514638 0.179504 9.86299 0.179504 21.3946C0.179504 30.2405 5.6754 37.8025 13.4317 40.8448C13.2495 39.1928 13.0847 36.6521 13.504 34.8486C13.8829 33.219 15.949 24.4699 15.949 24.4699C15.949 24.4699 15.3253 23.219 15.3253 21.3698C15.3253 18.4665 17.0058 16.2989 19.0982 16.2989C20.8771 16.2989 21.7363 17.6363 21.7363 19.2401C21.7363 21.0316 20.5973 23.7101 20.0095 26.1922C19.5183 28.2704 21.0502 29.9653 23.0972 29.9653C26.803 29.9653 29.6517 26.0522 29.6517 20.4038C29.6517 15.4044 26.0645 11.909 20.9422 11.909C15.0094 11.909 11.5271 16.3651 11.5271 20.9703C11.5271 22.7649 12.2175 24.6893 13.0789 25.7354C13.2493 25.9422 13.2743 26.1233 13.2235 26.3343C13.0652 26.9938 12.7135 28.412 12.6444 28.7023C12.5535 29.0845 12.3423 29.1656 11.9471 28.9814C9.34298 27.7676 7.7148 23.9548 7.7148 20.8925C7.7148 14.3059 12.4937 8.25701 21.4917 8.25701C28.7248 8.25701 34.3458 13.4185 34.3458 20.3163C34.3458 27.5124 29.815 33.3037 23.5262 33.3037C21.4133 33.3037 19.427 32.2045 18.7471 30.9061C18.7471 30.9061 17.7016 34.8927 17.4481 35.8697C16.9774 37.6833 15.7066 39.9567 14.8566 41.3436C16.8075 41.9484 18.8808 42.2747 21.0302 42.2747C32.5459 42.2747 41.8811 32.9263 41.8811 21.3946C41.8811 9.86299 32.5459 0.514638 21.0302 0.514638Z" fill="#E60023"/>
</g>
</g>
<defs>
<clipPath id="clip0_309_203">
<rect width="174.85" height="42.7897" fill="white"/>
</clipPath>
</defs>
</svg>
