<svg width="175" height="82" viewBox="0 0 175 82" fill="none" xmlns="http://www.w3.org/2000/svg">
<path d="M144.705 36.2749C146.415 36.2749 147.802 34.8899 147.802 33.1814C147.802 31.473 146.415 30.088 144.705 30.088C142.995 30.088 141.609 31.473 141.609 33.1814C141.609 34.8899 142.995 36.2749 144.705 36.2749Z" fill="#222222"/>
<path d="M100.482 46.3723C102.001 46.3723 102.877 45.2342 102.819 44.1252C102.789 43.5416 102.731 43.1622 102.672 42.8703C101.738 38.843 98.4663 35.8663 94.5814 35.8663C89.9662 35.8663 86.2274 40.0396 86.2274 45.1758C86.2274 50.3121 89.9662 54.4853 94.5814 54.4853C97.4731 54.4853 99.547 53.4347 101.037 51.7713C101.767 50.9541 101.621 49.6992 100.745 49.0864C100.014 48.5903 99.1089 48.7654 98.4371 49.3199C97.7944 49.8743 96.5676 50.9833 94.5814 50.9833C92.2446 50.9833 90.2583 48.9697 89.8202 46.314H100.482V46.3723ZM94.5522 39.3975C96.6553 39.3975 98.4663 41.0318 99.1381 43.2789H89.9662C90.638 41.0026 92.449 39.3975 94.5522 39.3975Z" fill="#222222"/>
<path d="M86.4026 37.7048C86.4026 36.8293 85.76 36.1289 84.9421 35.983C82.4009 35.6036 80.0057 36.5375 78.6328 38.2593V38.0259C78.6328 36.9461 77.7565 36.2749 76.8802 36.2749C75.9163 36.2749 75.1276 37.0628 75.1276 38.0259V52.3257C75.1276 53.2596 75.8287 54.0767 76.7634 54.1351C77.7857 54.1934 78.6328 53.4055 78.6328 52.3841V45.0007C78.6328 41.7321 81.0864 39.0473 84.4748 39.4267C84.5916 39.4267 84.7084 39.4267 84.8253 39.4267C85.7016 39.3683 86.4026 38.6095 86.4026 37.7048Z" fill="#222222"/>
<path d="M146.458 39.5727C146.458 38.6096 145.669 37.8217 144.705 37.8217C143.742 37.8217 142.953 38.6096 142.953 39.5727C142.953 39.631 142.953 51.8297 142.953 52.3841C142.953 53.3472 143.742 54.1351 144.705 54.1351C145.669 54.1351 146.458 53.3472 146.458 52.3841C146.458 51.8588 146.458 39.6602 146.458 39.5727Z" fill="#222222"/>
<path d="M120.403 29.8837C120.403 28.9206 119.614 28.1327 118.65 28.1327C117.686 28.1327 116.898 28.9206 116.898 29.8837V37.6756C115.7 36.4791 114.21 35.8955 112.429 35.8955C107.813 35.8955 104.075 40.0687 104.075 45.205C104.075 50.3412 107.813 54.5144 112.429 54.5144C114.21 54.5144 115.729 53.9016 116.927 52.7051C117.073 53.5222 117.803 54.1351 118.65 54.1351C119.614 54.1351 120.403 53.3471 120.403 52.3841V29.8837ZM112.458 51.0416C109.771 51.0416 107.609 48.4443 107.609 45.205C107.609 41.9948 109.771 39.3683 112.458 39.3683C115.145 39.3683 117.307 41.9656 117.307 45.205C117.307 48.4443 115.116 51.0416 112.458 51.0416Z" fill="#222222"/>
<path d="M138.688 29.8837C138.688 28.9206 137.899 28.1327 136.936 28.1327C135.972 28.1327 135.183 28.9206 135.183 29.8837V37.6756C133.985 36.4791 132.496 35.8955 130.714 35.8955C126.099 35.8955 122.36 40.0687 122.36 45.205C122.36 50.3412 126.099 54.5144 130.714 54.5144C132.496 54.5144 134.015 53.9016 135.212 52.7051C135.358 53.5222 136.088 54.1351 136.936 54.1351C137.899 54.1351 138.688 53.3471 138.688 52.3841V29.8837ZM130.714 51.0416C128.027 51.0416 125.865 48.4443 125.865 45.205C125.865 41.9948 128.027 39.3683 130.714 39.3683C133.401 39.3683 135.563 41.9656 135.563 45.205C135.563 48.4443 133.401 51.0416 130.714 51.0416Z" fill="#222222"/>
<path d="M155.338 52.4133V39.3975H156.886C157.704 39.3975 158.434 38.7847 158.492 37.9384C158.551 37.0337 157.821 36.2749 156.944 36.2749H155.338V33.8235C155.338 32.8897 154.637 32.0725 153.702 32.0142C152.68 31.9558 151.833 32.7437 151.833 33.7652V36.3041H150.372C149.554 36.3041 148.824 36.917 148.766 37.7633C148.707 38.668 149.437 39.4267 150.314 39.4267H151.803V52.4425C151.803 53.4056 152.592 54.1935 153.556 54.1935C154.578 54.1351 155.338 53.3764 155.338 52.4133Z" fill="#222222"/>
<path d="M40.8353 65.254C54.354 65.254 65.3131 54.3048 65.3131 40.7983C65.3131 27.2918 54.354 16.3427 40.8353 16.3427C27.3165 16.3427 16.3574 27.2918 16.3574 40.7983C16.3574 54.3048 27.3165 65.254 40.8353 65.254Z" fill="#222222"/>
<path d="M57.1636 40.7983C57.1636 38.8138 55.5571 37.2379 53.6 37.2379C52.6361 37.2379 51.7598 37.6173 51.1172 38.2301C48.6635 36.4791 45.3044 35.341 41.5655 35.1951L43.2013 27.549L48.5175 28.6872C48.5759 30.0296 49.6859 31.1094 51.0587 31.1094C52.4608 31.1094 53.6 29.9712 53.6 28.5704C53.6 27.1696 52.4608 26.0315 51.0587 26.0315C50.0656 26.0315 49.1893 26.6152 48.7804 27.4615L42.8508 26.2066C42.6755 26.1774 42.5003 26.2066 42.3834 26.2941C42.2374 26.3817 42.1497 26.5276 42.1205 26.7027L40.3095 35.2243C36.5122 35.341 33.0947 36.4791 30.6119 38.2593C29.9692 37.6465 29.093 37.2671 28.129 37.2671C26.1428 37.2671 24.5654 38.8722 24.5654 40.8275C24.5654 42.2866 25.4417 43.5123 26.6685 44.0668C26.6101 44.417 26.5809 44.7672 26.5809 45.1466C26.5809 50.6331 32.9779 55.0981 40.8645 55.0981C48.7512 55.0981 55.1481 50.6622 55.1481 45.1466C55.1481 44.7964 55.1189 44.417 55.0605 44.0668C56.2873 43.5123 57.1636 42.2574 57.1636 40.7983ZM32.6858 43.3372C32.6858 41.9364 33.8249 40.7983 35.227 40.7983C36.6291 40.7983 37.7683 41.9364 37.7683 43.3372C37.7683 44.738 36.6291 45.8762 35.227 45.8762C33.8249 45.9054 32.6858 44.738 32.6858 43.3372ZM46.9109 50.0786C45.1584 51.8296 41.8284 51.9463 40.8645 51.9463C39.8714 51.9463 36.5415 51.8004 34.8181 50.0786C34.5552 49.8159 34.5552 49.4074 34.8181 49.1447C35.081 48.8821 35.4899 48.8821 35.7528 49.1447C36.8628 50.2537 39.1996 50.6331 40.8645 50.6331C42.5295 50.6331 44.8955 50.2537 45.9762 49.1447C46.2391 48.8821 46.6481 48.8821 46.9109 49.1447C47.1446 49.4074 47.1446 49.8159 46.9109 50.0786ZM46.4436 45.9054C45.0415 45.9054 43.9023 44.7672 43.9023 43.3664C43.9023 41.9656 45.0415 40.8275 46.4436 40.8275C47.8457 40.8275 48.9848 41.9656 48.9848 43.3664C48.9848 44.738 47.8457 45.9054 46.4436 45.9054Z" fill="white"/>
</svg>
