<svg width="175" height="53" viewBox="0 0 175 53" fill="none" xmlns="http://www.w3.org/2000/svg">
<g clip-path="url(#clip0_309_183)">
<path d="M42.417 23.3163C34.0916 18.3667 20.3592 17.9116 12.4116 20.3264C11.1352 20.7139 9.78568 19.9927 9.39896 18.715C9.01224 17.4368 9.73196 16.0866 11.0091 15.6981C20.1324 12.9255 35.2985 13.4612 44.8828 19.1569C46.031 19.8389 46.4076 21.3231 45.7269 22.4707C45.0459 23.6198 43.5621 23.9986 42.417 23.3163ZM42.1444 30.6475C41.5605 31.5964 40.3213 31.8937 39.3748 31.3115C32.4339 27.0402 21.8499 25.8029 13.6383 28.2982C12.5735 28.6203 11.4487 28.0193 11.1254 26.9552C10.8044 25.8891 11.4051 24.7652 12.4681 24.441C21.8487 21.5914 33.51 22.9716 41.4819 27.8762C42.4284 28.4597 42.7263 29.701 42.1444 30.6475ZM38.984 37.6882C38.5202 38.4499 37.5289 38.6888 36.7708 38.2245C30.7057 34.5136 23.0718 33.6753 14.0814 35.7313C13.215 35.9302 12.3517 35.3865 12.154 34.5194C11.9556 33.6521 12.4964 32.7879 13.3648 32.59C23.2031 30.3384 31.6425 31.3075 38.4502 35.472C39.2092 35.936 39.4482 36.9287 38.984 37.6882ZM27.1392 0.394233C12.8753 0.394233 1.31149 11.9702 1.31149 26.2501C1.31149 40.5313 12.8753 52.1069 27.1392 52.1069C41.4039 52.1069 52.967 40.5313 52.967 26.2501C52.967 11.9702 41.4039 0.394233 27.1392 0.394233Z" fill="#1ED760"/>
<path d="M71.5798 24.2641C67.1205 23.1995 66.3263 22.4522 66.3263 20.8826C66.3263 19.399 67.7216 18.4011 69.796 18.4011C71.8068 18.4011 73.8004 19.1591 75.8912 20.7195C75.9544 20.7668 76.0337 20.7856 76.1117 20.7733C76.1897 20.7615 76.2585 20.7189 76.3045 20.6541L78.4819 17.5813C78.5713 17.455 78.5469 17.2803 78.4263 17.1836C75.9384 15.1851 73.1367 14.2134 69.862 14.2134C65.047 14.2134 61.6837 17.1058 61.6837 21.2451C61.6837 25.6836 64.585 27.255 69.5986 28.468C73.8658 29.4521 74.586 30.2764 74.586 31.7503C74.586 33.3832 73.1296 34.3985 70.786 34.3985C68.1833 34.3985 66.0598 33.5207 63.6847 31.4616C63.6258 31.4109 63.545 31.3875 63.4704 31.3917C63.392 31.3983 63.3202 31.4347 63.2702 31.4948L60.8288 34.4037C60.7264 34.5244 60.7393 34.7047 60.8575 34.809C63.6212 37.2789 67.0196 38.5836 70.6873 38.5836C75.8758 38.5836 79.2285 35.7452 79.2285 31.3525C79.2285 27.6401 77.0129 25.587 71.5798 24.2641Z" fill="#1ED760"/>
<path d="M94.7335 29.2397C94.7335 32.3746 92.8047 34.562 90.0428 34.562C87.3124 34.562 85.2528 32.2752 85.2528 29.2397C85.2528 26.2047 87.3124 23.9175 90.0428 23.9175C92.7603 23.9175 94.7335 26.1552 94.7335 29.2397ZM90.9671 19.8612C88.7182 19.8612 86.8735 20.7479 85.3524 22.565V20.5198C85.3524 20.3583 85.2217 20.2267 85.0604 20.2267H81.0676C80.9063 20.2267 80.7759 20.3583 80.7759 20.5198V43.245C80.7759 43.4065 80.9063 43.538 81.0676 43.538H85.0604C85.2217 43.538 85.3524 43.4065 85.3524 43.245V36.0719C86.8739 37.7812 88.7188 38.616 90.9671 38.616C95.1459 38.616 99.3761 35.3957 99.3761 29.2397C99.3761 23.0824 95.1459 19.8612 90.9671 19.8612Z" fill="#1ED760"/>
<path d="M110.219 34.5948C107.357 34.5948 105.199 32.2924 105.199 29.2396C105.199 26.1741 107.282 23.9495 110.153 23.9495C113.034 23.9495 115.207 26.2518 115.207 29.3066C115.207 32.3718 113.109 34.5948 110.219 34.5948ZM110.219 19.8611C104.838 19.8611 100.622 24.0097 100.622 29.3066C100.622 34.546 104.809 38.651 110.153 38.651C115.554 38.651 119.783 34.5164 119.783 29.2396C119.783 23.9806 115.583 19.8611 110.219 19.8611Z" fill="#1ED760"/>
<path d="M131.275 20.2267H126.881V15.7294C126.881 15.5679 126.751 15.4367 126.59 15.4367H122.597C122.436 15.4367 122.304 15.5679 122.304 15.7294V20.2267H120.384C120.223 20.2267 120.094 20.3583 120.094 20.5198V23.9552C120.094 24.1166 120.223 24.248 120.384 24.248H122.304V33.1377C122.304 36.7302 124.09 38.5515 127.613 38.5515C129.045 38.5515 130.233 38.2554 131.353 37.6197C131.444 37.5688 131.501 37.4706 131.501 37.3662V34.0947C131.501 33.9936 131.448 33.8986 131.362 33.8455C131.275 33.7909 131.167 33.7881 131.078 33.8322C130.309 34.2196 129.565 34.3985 128.734 34.3985C127.453 34.3985 126.881 33.8164 126.881 32.5113V24.248H131.275C131.436 24.248 131.566 24.1166 131.566 23.9552V20.5198C131.566 20.3583 131.436 20.2267 131.275 20.2267Z" fill="#1ED760"/>
<path d="M146.584 20.2443V19.6919C146.584 18.067 147.206 17.3423 148.602 17.3423C149.435 17.3423 150.103 17.5078 150.852 17.7579C150.944 17.7869 151.041 17.7724 151.116 17.7171C151.193 17.6619 151.236 17.5732 151.236 17.4794V14.1108C151.236 13.9821 151.153 13.8682 151.03 13.8305C150.239 13.5949 149.227 13.3528 147.711 13.3528C144.023 13.3528 142.073 15.432 142.073 19.3634V20.2094H140.155C139.994 20.2094 139.862 20.3406 139.862 20.5021V23.9552C139.862 24.1166 139.994 24.248 140.155 24.248H142.073V37.9599C142.073 38.1214 142.204 38.2526 142.365 38.2526H146.357C146.519 38.2526 146.65 38.1214 146.65 37.9599V24.248H150.378L156.089 37.9563C155.441 39.3966 154.803 39.6832 153.933 39.6832C153.229 39.6832 152.489 39.4728 151.731 39.0579C151.66 39.0186 151.576 39.0122 151.499 39.036C151.422 39.0631 151.358 39.1197 151.326 39.1941L149.973 42.1665C149.908 42.3069 149.963 42.4719 150.098 42.5447C151.511 43.3107 152.787 43.6377 154.363 43.6377C157.311 43.6377 158.941 42.2625 160.378 38.5636L167.305 20.6432C167.339 20.5531 167.329 20.4515 167.274 20.3712C167.219 20.2922 167.131 20.2443 167.034 20.2443H162.877C162.753 20.2443 162.641 20.3234 162.6 20.4404L158.342 32.6172L153.678 20.4324C153.635 20.319 153.526 20.2443 153.405 20.2443H146.584Z" fill="#1ED760"/>
<path d="M137.709 20.2268H133.716C133.555 20.2268 133.424 20.3583 133.424 20.5198V37.96C133.424 38.1215 133.555 38.2527 133.716 38.2527H137.709C137.87 38.2527 138.001 38.1215 138.001 37.96V20.5198C138.001 20.3583 137.87 20.2268 137.709 20.2268Z" fill="#1ED760"/>
<path d="M135.733 12.2858C134.151 12.2858 132.867 13.568 132.867 15.1514C132.867 16.7359 134.151 18.0194 135.733 18.0194C137.314 18.0194 138.596 16.7359 138.596 15.1514C138.596 13.568 137.314 12.2858 135.733 12.2858Z" fill="#1ED760"/>
<path d="M170.877 21.9616H170.146V22.8956H170.877C171.242 22.8956 171.46 22.7167 171.46 22.4283C171.46 22.1245 171.242 21.9616 170.877 21.9616ZM171.352 23.294L172.146 24.4081H171.476L170.761 23.3862H170.146V24.4081H169.585V21.455H170.9C171.585 21.455 172.036 21.8061 172.036 22.397C172.036 22.881 171.757 23.1768 171.352 23.294ZM170.729 20.4726C169.289 20.4726 168.2 21.6177 168.2 23.0206C168.2 24.4226 169.282 25.5527 170.714 25.5527C172.153 25.5527 173.243 24.4081 173.243 23.0046C173.243 21.6026 172.161 20.4726 170.729 20.4726ZM170.714 25.8341C169.133 25.8341 167.904 24.5635 167.904 23.0206C167.904 21.4776 169.15 20.1925 170.729 20.1925C172.309 20.1925 173.539 21.463 173.539 23.0046C173.539 24.5477 172.294 25.8341 170.714 25.8341Z" fill="#1ED760"/>
</g>
<defs>
<clipPath id="clip0_309_183">
<rect width="174.85" height="52.5013" fill="white"/>
</clipPath>
</defs>
</svg>
