<svg width="175" height="84" viewBox="0 0 175 84" fill="none" xmlns="http://www.w3.org/2000/svg">
<path fill-rule="evenodd" clip-rule="evenodd" d="M154.675 42.4779C154.675 32.8885 150.042 25.3219 141.188 25.3219C132.296 25.3219 126.916 32.8885 126.916 42.403C126.916 53.678 133.267 59.3717 142.383 59.3717C146.829 59.3717 150.192 58.3603 152.732 56.9369V49.4452C150.192 50.7188 147.277 51.5054 143.579 51.5054C139.955 51.5054 136.742 50.2318 136.331 45.8117H154.6C154.6 45.3247 154.675 43.3769 154.675 42.4779ZM136.219 38.9193C136.219 34.6865 138.796 32.926 141.15 32.926C143.429 32.926 145.858 34.6865 145.858 38.9193H136.219Z" fill="#635BFF"/>
<path fill-rule="evenodd" clip-rule="evenodd" d="M112.494 25.3219C108.833 25.3219 106.479 27.045 105.172 28.2437L104.686 25.9212H96.4664V69.5978L105.807 67.6125L105.844 57.0118C107.189 57.9857 109.169 59.3717 112.457 59.3717C119.145 59.3717 125.234 53.9777 125.234 42.1033C125.197 31.2403 119.032 25.3219 112.494 25.3219ZM110.253 51.1308C108.048 51.1308 106.741 50.3442 105.844 49.3703L105.807 35.4732C106.778 34.3869 108.123 33.6377 110.253 33.6377C113.652 33.6377 116.006 37.4585 116.006 42.3655C116.006 47.385 113.69 51.1308 110.253 51.1308Z" fill="#635BFF"/>
<path fill-rule="evenodd" clip-rule="evenodd" d="M83.6141 23.1119L92.9918 21.0892V13.4851L83.6141 15.4704V23.1119Z" fill="#635BFF"/>
<path d="M92.9918 25.9587H83.6141V58.7349H92.9918V25.9587Z" fill="#635BFF"/>
<path fill-rule="evenodd" clip-rule="evenodd" d="M73.564 28.7307L72.9662 25.9587H64.8962V58.7349H74.2365V36.522C76.4408 33.6377 80.1769 34.1621 81.3351 34.5742V25.9587C80.1395 25.5092 75.7683 24.6851 73.564 28.7307Z" fill="#635BFF"/>
<path fill-rule="evenodd" clip-rule="evenodd" d="M54.8834 17.8303L45.7673 19.7782L45.73 49.7824C45.73 55.3263 49.8771 59.4093 55.4065 59.4093C58.4701 59.4093 60.7118 58.8474 61.9447 58.1731V50.5691C60.7491 51.056 54.8461 52.7791 54.8461 47.2352V33.9375H61.9447V25.9588H54.8461L54.8834 17.8303Z" fill="#635BFF"/>
<path fill-rule="evenodd" clip-rule="evenodd" d="M29.6273 35.4732C29.6273 34.0123 30.8228 33.4504 32.803 33.4504C35.6424 33.4504 39.2291 34.3119 42.0685 35.8477V27.045C38.9676 25.8089 35.904 25.3219 32.803 25.3219C25.2187 25.3219 20.1749 29.2925 20.1749 35.9227C20.1749 46.2612 34.3721 44.613 34.3721 49.0706C34.3721 50.7937 32.8777 51.3556 30.7855 51.3556C27.6845 51.3556 23.7242 50.082 20.5859 48.3589V57.274C24.0605 58.7723 27.5724 59.4091 30.7855 59.4091C38.5566 59.4091 43.8992 55.5509 43.8992 48.8458C43.8619 37.6832 29.6273 39.6685 29.6273 35.4732Z" fill="#635BFF"/>
</svg>
